PathFileType	4	(X/Y/Z)	traj.trc
DataRate	CameraRate	NumFrames	NumMarkers	Units	OrigDataRate	OrigDataStartFrame	OrigNumFrames
30.00	30.00	140	1	mm	30.00	1	200
Frame#	Time	wrist		
		X1	Y1	Z1

0	0.0	486.38859391212463	2467.968463897705	-161.52121126651764
1	0.020100502512562814	486.38859391212463	2467.968463897705	-161.52121126651764
2	0.04020100502512563	486.3884766998667	2467.9655916012125	-161.52104087916214
3	0.06030150753768844	486.38789536246696	2467.9513458780707	-161.52019580933754
4	0.08040201005025126	486.3863975306908	2467.914641381159	-161.5180184637259
5	0.10050251256281408	486.3835448275844	2467.844735645399	-161.51387158909765
6	0.12060301507537688	486.3789127249639	2467.7312255710144	-161.50713806369518
7	0.1407035175879397	486.3720903999049	2467.564043906795	-161.49722068861684
8	0.16080402010050251	486.36268059123165	2467.333455733355	-161.48354197920025
9	0.18090452261306533	486.3502994560069	2467.0300549463964	-161.46554395640638
10	0.20100502512562815	486.33457642602093	2466.6447607399678	-161.44268793820302
11	0.22110552763819097	486.3151540642814	2466.168814089728	-161.41445433094856
12	0.24120603015075376	486.29168792150216	2465.5937742362053	-161.38034242077575
13	0.2613065326633166	486.2638463925934	2464.911515168058	-161.33987016497537
14	0.2814070351758794	486.2313105731506	2464.1142221053383	-161.29257398337984
15	0.30150753768844224	486.1937741159441	2463.1943879827513	-161.23800854974715
16	0.32160804020100503	486.1509430874085	2462.1448099329164	-161.17574658314436
17	0.3417085427135678	486.10253582413213	2460.9585857696275	-161.1053786393314
18	0.36180904522613067	486.0482827893466	2459.6291104711167	-161.02651290214484
19	0.38190954773869346	485.9879264294159	2458.150072663314	-160.93877497488143
20	0.4020100502512563	485.9212210303261	2456.5154511031064	-160.841807671682
21	0.4221105527638191	485.84793257417476	2454.7195111616024	-160.73527080891503
22	0.44221105527638194	485.76783859566024	2452.756801307391	-160.6188409965604
23	0.4623115577889447	485.68072803857126	2450.6221495898044	-160.4922114295931
24	0.4824120603015075	485.58640111227623	2448.310660122176	-160.35509167936706
25	0.5025125628140703	485.4846691482127	2445.817709565106	-160.20720748499858
26	0.5226130653266332	485.37535445637684	2443.138943609718	-160.0483005447503
27	0.542713567839196	485.25829018181287	2440.270273460923	-159.8781283074148
28	0.5628140703517588	485.1333201611024	2437.20787232068	-159.69646376369838
29	0.5829145728643216	485.00029877885396	2433.9481718712573	-159.50309523760455
30	0.6030150753768845	484.8590908241924	2430.4878587584917	-159.29782617781808
31	0.6231155778894473	484.7095713472482	2426.823871075052	-159.08047494908843
32	0.6432160804020101	484.5516255156471	2422.953394843699	-158.85087462361358
33	0.6633165829145728	484.3851484709996	2418.8738605005456	-158.60887277242375
34	0.6834170854271356	484.21004518538984	2414.5829393783206	-158.35433125676505
35	0.7035175879396985	484.0262303178658	2410.078540189628	-158.0871260194832
36	0.7236180904522613	483.83362807092817	2405.3588055102073	-157.80714687640736
37	0.7437185929648241	483.63217204702	2400.4221082621966	-157.51429730773356
38	0.7638190954773869	483.421805105016	2395.2670481973923	-157.20849424940874
39	0.7839195979899498	483.2024792167123	2389.8924483805113	-156.88966788451424
40	0.8040201005025126	482.9741553233153	2384.29735167245	-156.55776143464962
41	0.8241206030150754	482.73680319193176	2378.4810172135485	-156.21273095131622
42	0.8442211055276382	482.4904012720578	2372.442916906849	-155.85454510730108
43	0.864321608040201	482.2349365520683	2366.1827319013587	-155.48318498806046
44	0.8844221105527639	481.9704044157067	2359.7003490753095	-155.09864388310373
45	0.9045226130653267	481.6968084985741	2352.9958575194205	-154.7009270773769
46	0.9246231155778895	481.4141605446187	2346.069545020157	-154.29005164264643
47	0.9447236180904522	481.1224802626256	2338.921894542995	-153.8660462288829
48	0.964824120603015	480.82179518270556	2331.553580715678	-153.4289508556448
49	0.9849246231155779	480.51214051278515	2323.9654663114834	-152.97881670346214
50	1.0050251256281406	480.1935589950958	2316.1585987324775	-152.5157059052202
51	1.0251256281407035	479.86610076266305	2308.1342064927817	-152.03969133754313
52	1.0452261306532664	479.52982319579655	2299.893695701831	-151.55085641217798
53	1.065326633165829	479.18479077857893	2291.4386465476346	-151.049294867378
54	1.085427135678392	478.8310749553555	2282.7708097800405	-150.53511055928666
55	1.105527638190955	478.46875398722375	2273.892103193992	-150.0084172533212
56	1.1256281407035176	478.09791280852244	2264.8046081127927	-149.46933841555636
57	1.1457286432160805	477.7186428833214	2255.510565871365	-148.9180070041082
58	1.1658291457286432	477.331042061911	2246.012374299512	-148.35456526051757
59	1.185929648241206	476.93521443729094	2236.312584205179	-147.7791645011341
60	1.206030150753769	476.5312702016605	2226.413895857715	-147.19196490849973
61	1.2261306532663316	476.11932550290754	2216.3191554711325	-146.59313532273248
62	1.2462311557788945	475.6995023010979	2206.031351687369	-145.98285303291013
63	1.2663316582914572	475.27192822496494	2195.553612059549	-145.36130356845393
64	1.2864321608040201	474.83673642839915	2184.8891995352437	-144.72868049051235
65	1.306532663316583	474.3940654469371	2174.0415089397334	-144.0851851833448
66	1.3266331658291457	473.94405905425134	2163.0140634592685	-143.43102664570526
67	1.3467336683417086	473.4868661186397	2151.8105111243294	-142.76642128222602
68	1.3668341708542713	473.0226404595144	2140.4346212928886	-142.09159269480142
69	1.3869346733668342	472.551540703892	2128.890281133672	-141.40677147397156
70	1.407035175879397	472.0737301428825	2117.181492109419	-140.712194990306
71	1.4271356783919598	471.5893765881788	2105.3123664601444	-140.00810718578734
72	1.4472361809045227	471.0986522285464	2093.2871236864	-139.29475836519526
73	1.4673366834170853	470.60173348631224	2081.110087032534	-138.57240498748982
74	1.4874371859296482	470.09880087385477	2068.7856799699534	-137.8413094571955
75	1.5075376884422111	469.59003885009304	2056.3184226803846	-137.10173991578466
76	1.5276381909547738	469.0756356769761	2043.7129285391356	-136.35397003306153
77	1.5477386934673367	468.55578327597283	2030.9739005983558	-135.59827879854555
78	1.5678391959798996	468.0306770845606	2018.106128070297	-134.83495031285548
79	1.5879396984924623	467.5005159127156	2005.1144828105753	-134.06427357909277
80	1.6080402010050252	466.96550179940164	1992.003915801433	-133.28654229422546
81	1.6281407035175879	466.4258398690598	1978.779453634997	-132.50205464047187
82	1.6482412060301508	465.8817381880979	1965.4461949965425	-131.71111307668428
83	1.6683417085427137	465.3334076213798	1952.009307147753	-130.9140241297326
84	1.6884422110552764	464.7810616887149	1938.4740224099812	-130.11109818588815
85	1.7085427135678393	464.22491642134753	1924.8456346475111	-129.3026492822073
86	1.728643216080402	463.66519021844664	1911.1294957508183	-128.4889948979153
87	1.7487437185929648	463.1021037035948	1897.3310121198308	-127.67045574578978
88	1.7688442211055277	462.5358795812779	1883.4556411471915	-126.84735556354474
89	1.7889447236180904	461.9667424933745	1869.5088877015169	-126.02002090521394
90	1.8090452261306533	461.3949188756453	1855.4963006106614	-125.18878093253494
91	1.829145728643216	460.82063681422267	1841.4234691449756	-124.35396720633251
92	1.849246231155779	460.24412590209965	1827.2960195005687	-123.51591347790259
93	1.8693467336683418	459.6656170956202	1813.1196112825696	-122.67495548039575
94	1.8894472361809045	459.08534257096744	1798.8999339883878	-121.83143072020114
95	1.9095477386934674	458.50353558065444	1784.642703490974	-120.98567826833003
96	1.92964824120603	457.92043031001253	1770.3536585220832	-120.13803855179965
97	1.949748743718593	457.3362617336814	1756.0385571555319	-119.28885314501674
98	1.9698492462311559	456.7512654720982	1741.703173290464	-118.43846456116141
99	1.9899497487437185	456.1656776479871	1727.353293134608	-117.58721604357075
100	2.0100502512562812	455.5797347428487	1712.9947116875403	-116.73545135712263
101	2.030150753768844	454.99367345344945	1698.6332292239456	-115.88351457961929
102	2.050251256281407	454.40773054831095	1684.2746477768783	-115.03174989317115
103	2.07035175879397	453.82214272419986	1669.9247676210223	-114.1805013755805
104	2.090452261306533	453.23714646261664	1655.589383755954	-113.33011279172517
105	2.1105527638190953	452.65297788628556	1641.2742823894037	-112.48092738494225
106	2.130653266331658	452.06987261564365	1626.9852374205122	-111.63328766841185
107	2.150753768844221	451.4880656253306	1612.7280069230987	-110.78753521654076
108	2.170854271356784	450.90779110067797	1598.508329628917	-109.94401045634616
109	2.190954773869347	450.3292822941984	1584.3319214109179	-109.10305245883933
110	2.21105527638191	449.7527713820755	1570.2044717665112	-108.26499873040937
111	2.2311557788944723	449.1784893206528	1556.1316403008254	-107.43018500420696
112	2.251256281407035	448.60666570292364	1542.1190532099697	-106.59894503152796
113	2.271356783919598	448.0375286150202	1528.1722997642953	-105.77161037319718
114	2.291457286432161	447.47130449270327	1514.2969287916555	-104.94851019095212
115	2.311557788944724	446.9082179778514	1500.4984451606683	-104.12997103882662
116	2.3316582914572863	446.34849177495056	1486.7823062639754	-103.3163166545346
117	2.351758793969849	445.79234650758326	1473.1539185015054	-102.50786775085376
118	2.371859296482412	445.2400005749183	1459.618633763734	-101.7049418070093
119	2.391959798994975	444.6916700082002	1446.1817459149443	-100.90785286005763
120	2.412060301507538	444.1475683272383	1432.8484872764898	-100.11691129627003
121	2.4321608040201004	443.60790639689645	1419.6240251100535	-99.33242364251645
122	2.4522613065326633	443.07289228358246	1406.5134581009108	-98.55469235764916
123	2.472361809045226	442.5427311117375	1393.5218128411896	-97.78401562388645
124	2.492462311557789	442.0176249203253	1380.6540403131307	-97.02068713819635
125	2.512562814070352	441.497772519322	1367.9150123723507	-96.26499590368039
126	2.5326633165829144	440.98336934620505	1355.3095182311017	-95.51722602095724
127	2.5527638190954773	440.4746073224434	1342.8422609415331	-94.77765647954642
128	2.5728643216080402	439.9716747099859	1330.5178538789523	-94.04656094925208
129	2.592964824120603	439.4747559677517	1318.3408172250865	-93.32420757154665
130	2.613065326633166	438.98403160811927	1306.3155744513417	-92.61085875095456
131	2.6331658291457285	438.4996780534156	1294.4464488020676	-91.90677094643593
132	2.6532663316582914	438.0218674924061	1282.7376597778145	-91.21219446277034
133	2.6733668341708543	437.55076773678377	1271.193319618598	-90.5273732419405
134	2.693467336683417	437.08654207765846	1259.8174297871574	-89.8525446545159
135	2.71356783919598	436.62934914204675	1248.6138774522183	-89.18793929103666
136	2.7336683417085426	436.179342749361	1237.5864319717534	-88.5337807533971
137	2.7537688442211055	435.736671767899	1226.738741376243	-87.89028544622954
138	2.7738693467336684	435.30147997133315	1216.074328851938	-87.25766236828798
139	2.7939698492462313	434.87390589520027	1205.596589224118	-86.63611290383179
